<svg version="1.0" xmlns="http://www.w3.org/2000/svg" width="1200.000000pt" height="750.000000pt" viewBox="0 0 1200.000000 750.000000" preserveAspectRatio="xMidYMid meet">

  <g transform="translate(0.000000,750.000000) scale(0.100000,-0.100000)" fill="#000000" stroke="none">
    <path d="M5795 5024 c-169 -30 -318 -97 -468 -210 -49 -36 -87 -68 -85 -70 2 -2 32 6 66 16 256 80 554 83 770 9 307 -106 530 -377 549 -668 16 -247 -141 -472 -386 -554 -44 -15 -68 -28 -60 -32 6 -5 64 -10 128 -13 133 -5 193 7 296 61 72 38 187 151 233 229 158 267 144 549 -38 818 -50 73 -184 200 -271 256 -223 145 -489 202 -734 158z"/>
    <path d="M5570 4689 c-84 -13 -166 -38 -234 -70 l-61 -28 40 -1 c35 -1 38 -3 22 -13 -180 -116 -246 -174 -312 -277 -83 -128 -115 -244 -115 -414 0 -232 98 -456 279 -637 62 -62 187 -159 204 -159 3 0 -7 30 -20 68 -58 159 -84 290 -90 448 -6 174 8 262 58 364 95 190 302 291 530 260 139 -19 242 -69 315 -153 60 -69 77 -117 72 -208 -2 -44 -1 -79 2 -79 16 0 131 136 160 191 34 62 35 67 35 174 0 104 -2 113 -32 171 -133 255 -514 417 -853 363z m696 -298 c14 -31 33 -71 41 -89 20 -40 13 -48 -27 -32 -59 24 -97 105 -84 176 6 33 7 34 25 18 11 -10 31 -42 45 -73z"/>
    <path d="M7076 3948 c-10 -62 -79 -203 -138 -279 -78 -103 -191 -196 -314 -257 -152 -77 -359 -120 -520 -108 -340 25 -569 188 -663 471 l-26 80 -7 -45 c-23 -154 5 -356 67 -486 69 -143 220 -265 385 -310 30 -8 100 -17 156 -21 222 -13 441 51 641 189 85 59 218 194 269 274 83 130 147 312 160 454 7 85 1 108 -10 38z"/>
  </g>
</svg>
