<svg version="1.0" xmlns="http://www.w3.org/2000/svg" width="256.000000pt" height="256.000000pt" viewBox="0 0 256.000000 256.000000" preserveAspectRatio="xMidYMid meet">

  <g transform="translate(0.000000,256.000000) scale(0.100000,-0.100000)" fill="#a80400" stroke="none">
    <path d="M1056 2414 c-206 -37 -365 -110 -554 -252 -40 -30 -71 -56 -69 -58 2 -2 65 11 139 30 365 94 724 60 973 -91 351 -212 522 -603 404 -919 -62 -165 -215 -310 -396 -374 -35 -13 -63 -26 -63 -30 0 -23 257 -27 339 -5 222 59 423 280 492 541 29 110 29 278 0 389 -31 117 -110 269 -187 359 -269 316 -698 479 -1078 410z"/>
    <path d="M815 2039 c-122 -18 -381 -107 -314 -108 14 -1 28 -4 32 -7 3 -4 -42 -41 -101 -82 -130 -93 -186 -147 -250 -245 -98 -151 -139 -308 -129 -502 16 -312 170 -585 450 -799 43 -32 80 -56 83 -53 3 3 -10 54 -29 114 -59 182 -87 354 -87 533 1 211 52 354 168 470 111 111 239 162 407 162 175 0 319 -54 420 -156 84 -84 99 -119 103 -238 2 -54 8 -98 13 -98 14 0 131 142 169 206 34 56 35 62 38 175 4 137 -4 175 -58 259 -167 257 -568 419 -915 369z m722 -266 c13 -16 103 -199 103 -209 0 -2 -11 -4 -24 -4 -59 0 -116 85 -116 175 0 58 11 69 37 38z"/>
    <path d="M2495 1215 c-62 -267 -295 -530 -572 -645 -179 -75 -398 -110 -565 -90 -370 43 -616 230 -714 542 -9 31 -21 55 -24 53 -4 -3 -11 -42 -15 -88 -13 -158 29 -392 93 -512 14 -27 67 -91 117 -140 72 -72 107 -99 175 -133 284 -142 684 -92 1014 126 85 56 248 216 303 297 92 137 172 345 193 508 12 86 9 139 -5 82z"/>
  </g>
</svg>
