<svg version="1.0" xmlns="http://www.w3.org/2000/svg" width="900.000000pt" height="200.000000pt" viewBox="0 0 900.000000 200.000000" preserveAspectRatio="xMidYMid meet">

  <g transform="translate(0.000000,200.000000) scale(0.100000,-0.100000)" fill="#000000" stroke="none">
    <path fill="#a80400" d="M1050 1874 c-100 -12 -225 -48 -312 -92 -80 -41 -232 -142 -224 -150 2 -1 50 9 107 23 130 32 327 43 450 26 270 -40 492 -210 587 -449 23 -59 26 -82 27 -187 0 -120 0 -121 -38 -199 -54 -108 -123 -174 -237 -229 -49 -23 -90 -46 -90 -50 0 -5 57 -7 128 -5 119 3 131 5 196 36 48 22 90 53 141 105 250 250 237 632 -32 899 -172 171 -359 257 -593 271 -41 3 -91 3 -110 1z"/>
    <path fill="#a80400" d="M729 1565 c-31 -8 -87 -26 -125 -42 -64 -25 -67 -28 -39 -33 28 -5 28 -6 -40 -50 -137 -89 -228 -200 -276 -337 -26 -74 -36 -243 -20 -337 27 -155 110 -308 230 -427 65 -63 158 -135 166 -127 2 2 -9 43 -26 91 -42 126 -60 243 -60 393 0 108 4 143 21 195 42 122 113 204 223 254 219 101 515 8 583 -182 7 -21 13 -65 14 -97 l0 -59 21 19 c30 27 103 123 123 161 11 23 16 59 16 129 0 125 -17 163 -119 265 -133 133 -311 200 -526 198 -60 0 -135 -7 -166 -14z m629 -202 c25 -37 74 -145 67 -151 -2 -3 -18 1 -35 8 -38 16 -70 75 -70 130 0 47 11 51 38 13z"/>
    <path d="M2340 1005 l0 -465 105 0 105 0 0 180 0 179 338 3 c386 3 394 5 432 82 18 37 20 62 20 201 0 139 -2 164 -20 201 -39 79 -33 79 -537 82 l-443 3 0 -466z m760 292 c24 -12 25 -16 25 -112 0 -96 -1 -100 -25 -112 -18 -9 -96 -13 -287 -13 l-263 0 0 125 0 125 263 0 c191 0 269 -4 287 -13z"/>
    <path d="M3610 920 l0 -380 90 0 90 0 0 145 0 145 88 0 89 0 159 -145 159 -145 133 0 134 0 -177 143 -177 142 94 6 c100 6 125 15 157 55 19 24 21 40 21 180 0 149 -1 153 -26 183 -14 17 -42 35 -62 41 -22 6 -185 10 -404 10 l-368 0 0 -380z m668 234 c19 -13 22 -24 22 -89 0 -108 8 -105 -277 -105 l-233 0 0 105 0 105 233 0 c194 0 236 -3 255 -16z"/>
    <path d="M4780 920 l0 -380 90 0 90 0 0 380 0 380 -90 0 -90 0 0 -380z"/>
    <path d="M5300 920 l0 -380 75 0 75 0 2 251 3 251 169 -206 c105 -129 175 -206 186 -206 12 0 79 77 187 214 l168 214 3 -259 2 -259 85 0 85 0 0 380 0 380 -75 0 -74 0 -185 -225 -185 -225 -122 148 c-67 81 -151 182 -187 225 l-64 77 -74 0 -74 0 0 -380z"/>
    <path d="M6680 920 l0 -380 415 0 415 0 0 70 0 70 -320 0 -320 0 0 95 0 95 180 0 180 0 0 65 0 65 -180 0 -180 0 0 80 0 80 315 0 315 0 0 70 0 70 -410 0 -410 0 0 -380z"/>
    <path d="M7892 926 c-122 -206 -222 -377 -222 -380 0 -3 40 -6 89 -6 l90 0 48 80 48 80 251 0 252 0 47 -80 47 -80 105 0 105 0 -29 48 c-15 27 -118 198 -228 380 l-200 332 -90 0 -90 0 -223 -374z m392 74 l86 -155 -167 -3 c-91 -1 -168 -1 -170 2 -3 2 33 74 79 159 45 86 84 155 84 154 1 -1 41 -72 88 -157z"/>
    <path fill="#a80400" d="M2076 928 c-4 -18 -25 -71 -49 -118 -34 -69 -60 -103 -137 -180 -138 -139 -271 -204 -485 -236 -228 -35 -468 36 -601 178 -62 66 -89 110 -125 201 -26 67 -28 70 -35 43 -10 -43 2 -233 20 -301 28 -104 71 -178 140 -243 124 -116 258 -160 456 -149 227 12 420 104 593 282 127 130 207 304 233 503 7 57 0 71 -10 20z"/>
  </g>
</svg>
